# xmcd
#
# Track frame offsets: 
#        150
#        13075
#        26145
#        43162
#        54200
#        68294
#        92972
#        110139
#        122193
#        134596
#        152211
#        176722
#
# Disc length: 2382 seconds
#
# Revision: 0
# Processed by: cddbd v1.5.2PL0 Copyright (c) Steve Scherf et al.
# Submitted via: ExactAudioCopy v0.99pb3
#
DISCID=a9094c0c
DTITLE=Lonesome Sundown and Phillip Walker - From LA To L.A.
DYEAR=2006
DGENRE=Blues
TTITLE0=Steppin' Up In Class
TTITLE1=Trouble In My Home
TTITLE2=Gloria Belle
TTITLE3=The Trace
TTITLE4=My Bad Habit
TTITLE5=The Train
TTITLE6=If My Tears Must Fall
TTITLE7=This Is The Blues
TTITLE8=Bad Luck Is Falling
TTITLE9=Bopp's Dream
TTITLE10=Crawl Back To Opelousas
TTITLE11=Liner Notes in PDF
EXTD=
EXTT0=
EXTT1=
EXTT2=
EXTT3=
EXTT4=
EXTT5=
EXTT6=
EXTT7=
EXTT8=
EXTT9=
EXTT10=
EXTT11=
PLAYORDER=
